<?xml version="1.0" standalone="no"?>
<!DOCTYPE svg PUBLIC "-//W3C//DTD SVG 20010904//EN"
 "http://www.w3.org/TR/2001/REC-SVG-20010904/DTD/svg10.dtd">
<svg version="1.0" xmlns="http://www.w3.org/2000/svg"
 width="240.000000pt" height="240.000000pt" viewBox="0 0 240.000000 240.000000"
 preserveAspectRatio="xMidYMid meet">
<metadata>
Created by potrace 1.14, written by Peter Selinger 2001-2017
</metadata>
<g transform="translate(0.000000,240.000000) scale(0.100000,-0.100000)"
fill="#000000" stroke="none">
<path d="M355 2188 c-35 -20 -44 -42 -45 -104 0 -77 25 -106 94 -108 l44 -1
-13 -30 c-12 -29 -98 -216 -165 -360 -76 -163 -69 -106 -70 -611 0 -447 0
-456 21 -494 12 -21 38 -47 59 -59 37 -21 48 -21 363 -19 l325 3 -18 38 c-11
21 -24 54 -30 73 l-12 34 -279 0 -279 0 0 424 0 425 46 98 c60 127 94 201 161
348 30 66 58 122 63 125 5 3 52 5 105 5 l97 -1 60 -130 c32 -71 70 -155 84
-186 13 -32 35 -81 48 -110 13 -29 40 -88 60 -131 l35 -78 61 42 c33 22 60 42
60 44 0 2 -18 46 -41 97 -23 51 -68 156 -101 233 -33 77 -68 157 -78 178 -10
20 -15 38 -12 38 4 1 21 3 37 4 76 5 96 27 97 105 0 122 7 120 -414 120 -239
-1 -349 -4 -363 -12z"/>
<path d="M1523 1894 c-75 -37 -114 -103 -114 -188 0 -109 57 -180 169 -206 19
-5 32 -4 32 2 0 5 6 6 13 1 6 -4 102 -8 213 -8 l200 0 -8 44 c-18 100 -97 162
-204 162 -82 0 -163 -49 -186 -113 -5 -16 -13 -26 -17 -24 -4 3 -6 81 -6 175
l1 171 -31 0 c-16 0 -45 -8 -62 -16z"/>
<path d="M1475 1353 c-33 -7 -74 -20 -92 -28 -17 -8 -34 -15 -38 -15 -16 0
-105 -69 -156 -121 -223 -224 -203 -650 38 -845 90 -73 157 -108 248 -129 60
-15 201 -14 270 0 216 46 390 216 439 432 20 89 14 241 -14 328 -56 175 -219
330 -395 375 -71 18 -229 20 -300 3z m271 -153 c131 -43 245 -160 284 -290 21
-68 21 -194 0 -254 -42 -128 -170 -257 -279 -283 -14 -3 -30 -8 -36 -12 -16
-10 -167 -9 -205 1 -138 38 -265 156 -306 285 -22 71 -26 182 -8 250 35 138
168 270 308 308 59 16 187 13 242 -5z"/>
</g>
</svg>
